<?xml version="1.0" encoding="UTF-8"?>
<svg width="28px" height="20px" viewBox="0 0 28 20" version="1.1" xmlns="http://www.w3.org/2000/svg" xmlns:xlink="http://www.w3.org/1999/xlink">
    <title>形状</title>
    <g id="1.0" stroke="none" stroke-width="1" fill="none" fill-rule="evenodd">
        <g id="About-us有版本更新" transform="translate(-166.000000, -554.000000)" fill="#0B0B0F" fill-rule="nonzero">
            <path d="M180.000018,554.980158 C174.423032,554.980158 170.516973,557.376098 170.516973,557.376098 C172.665306,555.459346 176.397763,554.3485 176.397763,554.3485 L176.050557,554 C172.535104,554.065344 169.345155,556.504847 169.345155,556.504847 C165.7646,563.997607 166.003304,570.488429 166.003304,570.488429 C168.911148,574.278371 173.251214,573.995215 173.251214,573.995215 L174.726837,572.122025 C172.122797,571.555711 170.473572,569.246896 170.473572,569.246896 C170.473572,569.246896 174.379632,571.925993 180.000018,571.925993 C185.620403,571.925993 189.526463,569.246896 189.526463,569.246896 C189.526463,569.246896 187.877238,571.577493 185.273198,572.122025 L186.748821,573.995215 C186.748821,573.995215 191.067186,574.278371 193.996731,570.488429 C193.996731,570.488429 194.235435,564.019389 190.63318,556.504847 C190.63318,556.504847 187.443231,554.065344 183.927777,554 L183.580572,554.3485 C183.580572,554.3485 187.33473,555.459346 189.461362,557.376098 C189.504763,557.376098 185.577003,554.980158 180.000018,554.980158 M175.488628,563 C176.878672,563 178.022096,564.127049 177.999676,565.5 C177.999676,566.852459 176.878672,568 175.488628,568 C174.121004,568 173,566.852459 173,565.5 C173,564.127049 174.076163,563 175.488628,563 M185.488789,563 C186.878924,563 188,564.127049 188,565.5 C188,566.852459 186.878924,568 185.488789,568 C184.121076,568 183,566.852459 183,565.5 C183,564.127049 184.076233,563 185.488789,563 Z" id="形状"></path>
        </g>
    </g>
</svg>