<?xml version="1.0" encoding="UTF-8"?>
<svg width="24px" height="20px" viewBox="0 0 24 20" version="1.1" xmlns="http://www.w3.org/2000/svg" xmlns:xlink="http://www.w3.org/1999/xlink">
    <title>编组 3</title>
    <g id="1.0" stroke="none" stroke-width="1" fill="none" fill-rule="evenodd">
        <g id="About-us有版本更新" transform="translate(-263.000000, -649.000000)" fill="#0B0B0F" fill-rule="nonzero">
            <g id="编组-3" transform="translate(263.000000, 649.000000)">
                <path d="M12,11.9999998 C11.8098072,12.0001247 11.6235228,11.9460085 11.463,11.8439998 L0,4.54900056 L0,18.0069992 C0.00385862085,19.1096149 0.899378005,20.0011083 2.002,20 L21.998,20 C23.100622,20.0011083 23.9961414,19.1096149 24,18.0069992 L24,4.55900056 L12.537,11.8439998 C12.3764084,11.945856 12.1901693,11.999959 12,11.9999998" id="路径"></path>
                <path d="M21.998,2.27373675e-13 L2.002,2.27373675e-13 C0.898988928,-0.00110694246 0.00330847841,0.890994272 0,1.99400083 L0,2.14700081 L12,9.81500002 L24,2.1890008 L24,1.99400083 C23.9966915,0.890994272 23.1010111,-0.00110694246 21.998,2.27373675e-13" id="路径"></path>
            </g>
        </g>
    </g>
</svg>