<?xml version="1.0" encoding="UTF-8"?>
<svg width="24px" height="26px" viewBox="0 0 24 26" version="1.1" xmlns="http://www.w3.org/2000/svg" xmlns:xlink="http://www.w3.org/1999/xlink">
    <title>路径</title>
    <g id="1.0" stroke="none" stroke-width="1" fill="none" fill-rule="evenodd">
        <g id="About-us有版本更新" transform="translate(-168.000000, -647.000000)" fill="#0B0B0F" fill-rule="nonzero">
            <path d="M190.27348,651.431824 C191.33866,649.51137 190.121302,647 190.121302,647 C187.382262,647 185.404078,648.772718 185.404078,648.772718 C184.338898,648.181802 180.839031,648.181802 180.839031,648.181802 C180.839031,648.181802 177.339165,648.181802 176.273985,648.772718 C176.273985,648.772718 174.295801,647 171.556761,647 C171.556761,647 170.339403,649.51137 171.404583,651.431824 C171.404583,651.431824 168.969898,653.647751 169.882901,658.375018 C170.740853,662.817206 174.752272,663.988674 177.339135,663.988674 C177.339135,663.988674 176.273955,664.875033 176.426132,666.352307 C176.426132,666.352307 174.90445,667.238666 173.382767,666.647751 C171.861085,666.056835 171.100229,664.57956 171.100229,664.57956 C171.100229,664.57956 169.578547,662.659106 168.056864,663.397729 C168.056864,663.397729 167.600363,663.840908 169.274222,664.57956 C169.274222,664.57956 170.49158,666.352278 170.948082,667.386374 C171.404583,668.420469 173.839269,669.306828 176.273985,668.715912 L176.273985,672.113641 C176.273985,672.113641 176.273985,672.409084 175.665306,672.55682 C175.056627,672.704557 175.056627,673 175.360981,673 L186.317082,673 C186.621406,673 186.621406,672.704557 186.012757,672.55682 C185.404078,672.409084 185.404078,672.113641 185.404078,672.113641 L185.404078,668.715912 C185.404078,668.715912 185.417445,666.944181 185.404078,666.352278 C185.370617,664.868007 184.338898,663.988645 184.338898,663.988645 C186.925761,663.988645 190.93718,662.817177 191.795132,658.374989 C192.708165,653.647751 190.27348,651.431824 190.27348,651.431824 Z" id="路径"></path>
        </g>
    </g>
</svg>