<?xml version="1.0" encoding="UTF-8"?>
<svg width="26px" height="22px" viewBox="0 0 26 22" version="1.1" xmlns="http://www.w3.org/2000/svg" xmlns:xlink="http://www.w3.org/1999/xlink">
    <title>路径</title>
    <g id="1.0" stroke="none" stroke-width="1" fill="none" fill-rule="evenodd">
        <g id="About-us有版本更新" transform="translate(-72.000000, -554.000000)" fill="#0B0B0F" fill-rule="nonzero">
            <path d="M95.4094176,559.4815 C95.2869482,569.031596 89.3802623,575.57292 80.5629462,575.983699 C76.926795,576.155841 74.2925294,574.941419 72,573.435625 C74.6874479,573.879108 78.0198602,572.768429 79.8021178,571.190998 C77.1678522,570.926062 75.6081981,569.539711 74.8784211,567.308672 C75.6396241,567.44473 76.4415481,567.408647 77.1647198,567.250306 C74.7876161,566.427584 73.0901372,564.908554 73.0024305,561.725564 C73.6694917,562.039572 74.3648806,562.334746 75.2887292,562.392936 C73.5097402,561.346713 72.1942758,557.52219 73.7009177,554.993196 C76.3412097,557.985352 79.5171731,560.427044 84.7321813,560.75735 C83.4228795,554.970525 90.8397483,551.832489 93.9438712,555.72182 C95.256067,555.459349 96.3241413,554.944616 97.3515628,554.384366 C96.9286912,555.728227 96.1143058,556.667364 95.1215789,557.418659 C96.2113415,557.266548 97.1759451,556.991228 98,556.57024 C97.4888429,557.66807 96.371093,558.652548 95.4094176,559.4815 Z" id="路径"></path>
        </g>
    </g>
</svg>