<svg width="18" height="22" viewBox="0 0 18 22" fill="none" xmlns="http://www.w3.org/2000/svg">
<path fill-rule="evenodd" clip-rule="evenodd" d="M0.758483 8.56544L4.34483 11.77V19.7353C4.34483 20.9861 5.31745 22 6.51724 22H11.4828C12.6825 22 13.6552 20.9861 13.6552 19.7353V11.77L17.2415 8.56544C17.723 8.13514 18.0001 7.50701 18 6.84588V2.26471C18 1.01394 17.0274 0 15.8276 0H2.17241C0.972623 0 7.95426e-09 1.01394 7.95426e-09 2.26471V6.84588C-5.42049e-05 7.50701 0.277013 8.13514 0.758483 8.56544ZM9 10.6765C8.4858 10.6765 8.06897 11.111 8.06897 11.6471V14.2353C8.06897 14.7713 8.4858 15.2059 9 15.2059C9.5142 15.2059 9.93104 14.7713 9.93104 14.2353V11.6471C9.93104 11.111 9.5142 10.6765 9 10.6765Z" fill="#23232F"/>
</svg>
