<svg width="22" height="19" viewBox="0 0 22 19" fill="none" xmlns="http://www.w3.org/2000/svg">
<path fill-rule="evenodd" clip-rule="evenodd" d="M20.9 0H1.09997C0.492449 0 0 0.472683 0 1.05577V17.9451C0 18.5278 0.492449 19 1.09997 19H20.9C21.5075 19 22 18.5278 22 17.9451V1.0558C22 0.472684 21.5075 0 20.9 0ZM18.5263 15.6471H3.47368V10.4084L6.69923 7.26471L12.0753 12.5039L15.3007 9.35999L18.5263 12.5039V15.6471ZM13.8947 5.02947C13.8947 6.26404 14.9314 7.26471 16.2105 7.26471C17.4895 7.26471 18.5263 6.26404 18.5263 5.02947C18.5263 3.79445 17.4895 2.79412 16.2105 2.79412C14.9315 2.79412 13.8947 3.79442 13.8947 5.02947Z" fill="white"/>
</svg>
