<?xml version="1.0" encoding="UTF-8"?>
<svg width="20px" height="20px" viewBox="0 0 20 20" version="1.1" xmlns="http://www.w3.org/2000/svg" xmlns:xlink="http://www.w3.org/1999/xlink">
    <title>跳转备份 4</title>
    <g id="1.0" stroke="none" stroke-width="1" fill="none" fill-rule="evenodd">
        <g id="Settings" transform="translate(-310.000000, -234.000000)">
            <g id="跳转备份-4" transform="translate(320.000000, 244.000000) scale(-1, 1) translate(-320.000000, -244.000000) translate(310.000000, 234.000000)">
                <rect id="矩形" x="0" y="0" width="20" height="20"></rect>
                <path d="M8.74664366,10.7272727 L8.03151671,10 L12.9813962,5.18181818 C13.3496356,4.81818182 13.3496356,4.27272728 12.9813962,3.90909091 C12.6131569,3.54545455 12.0607979,3.54545455 11.6925585,3.90909091 L6.261028,9.27272728 C6.07690832,9.45454546 5.98484848,9.72727273 5.98484848,9.99999999 C5.98484848,10.2727273 5.98484848,10.5454545 6.261028,10.7272727 L11.6925585,16.0909091 C12.0607978,16.4545455 12.6131569,16.4545455 12.9813962,16.0909091 C13.3496356,15.7272727 13.3496356,15.1818182 12.9813962,14.8181818 L8.74664366,10.7272727 Z" id="路径" fill="#5D5D6C" fill-rule="nonzero"></path>
            </g>
        </g>
    </g>
</svg>