<?xml version="1.0" encoding="UTF-8"?>
<svg width="30px" height="30px" viewBox="0 0 30 30" version="1.1" xmlns="http://www.w3.org/2000/svg" xmlns:xlink="http://www.w3.org/1999/xlink">
    <title>返回</title>
    <g id="1.0" stroke="none" stroke-width="1" fill="none" fill-rule="evenodd">
        <g id="PoP内活动页引导" transform="translate(-40.000000, -64.000000)">
            <g id="返回" transform="translate(40.000000, 64.000000)">
                <rect id="矩形" x="0" y="0" width="30" height="30"></rect>
                <path d="M12.3164557,16.3714286 C11.8045067,15.9203186 11.0198233,15.1478577 11.1659415,15 C11.3120596,14.8521423 12.443072,13.6285714 13.2025317,12.9428571 L20.4683544,5.91428571 C21.1772152,5.22857143 21.1772152,4.20000001 20.4683544,3.51428571 C19.7594937,2.82857143 18.6962026,2.82857143 17.9873418,3.51428571 L7.53164557,13.6285714 C7.17721518,13.9714286 7,14.4857143 7,15 C7,15.5142857 7,16.0285714 7.53164557,16.3714286 L17.9873418,26.4857143 C18.6962025,27.1714286 19.7594937,27.1714286 20.4683544,26.4857143 C21.1772152,25.8 21.1772152,24.7714286 20.4683544,24.0857143 L12.3164557,16.3714286 Z" id="路径" fill="#FFFFFF" fill-rule="nonzero"></path>
            </g>
        </g>
    </g>
</svg>