<?xml version="1.0" encoding="UTF-8"?>
<svg width="20px" height="20px" viewBox="0 0 20 20" version="1.1" xmlns="http://www.w3.org/2000/svg" xmlns:xlink="http://www.w3.org/1999/xlink">
    <title>确定</title>
    <g id="1.0" stroke="none" stroke-width="1" fill="none" fill-rule="evenodd">
        <g id="设置语言" transform="translate(-315.000000, -290.000000)" fill-rule="nonzero">
            <g id="确定" transform="translate(315.000000, 290.000000)">
                <rect id="矩形" fill="#000000" opacity="0" x="0" y="0" width="20" height="20"></rect>
                <path d="M9.99999999,1.29032258 C14.8101697,1.29032258 18.7096774,5.18982587 18.7096774,9.99999003 C18.7096774,14.8101741 14.8101697,18.7096774 9.99999999,18.7096774 C5.18983032,18.7096774 1.29032258,14.8101741 1.29032258,9.99999003 C1.29032258,5.18982587 5.18983032,1.29032258 9.99999999,1.29032258 Z M14.6283448,6.43172149 C14.2079822,6.10164195 13.5996287,6.17483085 13.2695491,6.59519347 L8.70193548,12.4116129 L6.49331963,10.186322 L6.44703559,10.1426103 C6.06817279,9.80739683 5.48890842,9.81972871 5.12473556,10.18117 C4.74538883,10.5576714 4.74308221,11.1704074 5.1195836,11.5497541 L8.09998934,14.5526838 L8.14490102,14.5951952 C8.55789031,14.9622484 9.2015365,14.9098463 9.54799121,14.4686296 L14.7918168,7.79051722 L14.8281165,7.74120609 C15.1157529,7.32376982 15.0325397,6.74910566 14.6283448,6.43172149 Z" id="形状结合" fill="#B5FF26"></path>
            </g>
        </g>
    </g>
</svg>