<?xml version="1.0" encoding="UTF-8"?>
<svg width="100px" height="100px" viewBox="0 0 100 100" version="1.1" xmlns="http://www.w3.org/2000/svg" xmlns:xlink="http://www.w3.org/1999/xlink">
    <title>警告备份</title>
    <g id="1.0" stroke="none" stroke-width="1" fill="none" fill-rule="evenodd">
        <g id="POP验证异常" transform="translate(-138.000000, -326.000000)" fill-rule="nonzero">
            <g id="失败" transform="translate(138.000000, 326.000000)">
                <rect id="矩形" fill="#000000" opacity="0" x="0" y="0" width="100" height="100"></rect>
                <path d="M6,49.9999496 C6,74.3002871 25.6997354,94 50,94 C74.3002645,94 94,74.3002871 94,49.9999496 C94,25.6997129 74.3002645,6 50,6 C25.6997354,6 6,25.6997129 6,49.9999496 Z M50,61.4074074 C54.500098,61.4074074 58.1481481,65.0554576 58.1481481,69.5555556 C58.1481481,74.0556535 54.500098,77.7037037 50,77.7037037 C45.499902,77.7037037 41.8518519,74.0556535 41.8518519,69.5555556 C41.8518519,65.0554576 45.499902,61.4074074 50,61.4074074 Z M56.5845631,23.9259259 L54.8888889,57.4248409 L45.1111111,57.4248409 L42.5874928,23.9259259 L56.5845631,23.9259259 Z" id="形状" fill="#5D5D6C"></path>
            </g>
        </g>
    </g>
</svg>