<?xml version="1.0" encoding="UTF-8"?>
<svg width="234px" height="310px" viewBox="0 0 234 310" version="1.1" xmlns="http://www.w3.org/2000/svg" xmlns:xlink="http://www.w3.org/1999/xlink">
    <title>编组备份</title>
    <defs>
        <path d="M191.181818,134.709455 C191.181818,125.395725 158.084807,117.845455 117.257576,117.845455 C76.430344,117.845455 43.3333333,125.395725 43.3333333,134.709455" id="path-1"></path>
        <mask id="mask-2" maskContentUnits="userSpaceOnUse" maskUnits="objectBoundingBox" x="0" y="0" width="147.848485" height="16.864" fill="white">
            <use xlink:href="#path-1"></use>
        </mask>
    </defs>
    <g id="1.0" stroke="none" stroke-width="1" fill="none" fill-rule="evenodd">
        <g id="编组备份">
            <path d="M234,0 L234,310 L0,310 L0,0 L234,0 Z M117,53.8 C75.1602462,53.8 41.2424242,92.2549633 41.2424242,136.896314 C41.2424242,181.537666 75.1602462,253.8 117,253.8 C158.839754,253.8 192.757576,181.537666 192.757576,136.896314 C192.757576,92.2549633 158.839754,53.8 117,53.8 Z" id="形状结合" fill="#0B0B0F"></path>
            <g id="编组-7" transform="translate(2.000000, 2.000000)" fill="#B5FF26">
                <path d="M211.835867,0 L228,0 C229.104569,-2.02906125e-16 230,0.8954305 230,2 L230,18.1289934 C230,19.2335629 229.104569,20.1289934 228,20.1289934 C227.470321,20.1289934 226.962273,19.9188768 226.587326,19.544745 L218.5,11.475 L210.423193,3.41575159 C209.641295,2.63555335 209.639917,1.36922415 210.420116,0.587326135 C210.795313,0.211311611 211.30468,-7.90600923e-16 211.835867,0 Z" id="矩形"></path>
                <path d="M4.83586717,0 L21,0 C22.1045695,-2.02906125e-16 23,0.8954305 23,2 L23,18.1289934 C23,19.2335629 22.1045695,20.1289934 21,20.1289934 C20.4703211,20.1289934 19.962273,19.9188768 19.5873261,19.544745 L11.5,11.475 L3.42319331,3.41575159 C2.6412953,2.63555335 2.63991736,1.36922415 3.42011559,0.587326135 C3.79531269,0.211311611 4.30468003,-7.90600923e-16 4.83586717,0 Z" id="矩形备份-5" transform="translate(11.500000, 11.475000) scale(-1, 1) translate(-11.500000, -11.475000) "></path>
                <path d="M211.835867,283.05 L228,283.05 C229.104569,283.05 230,283.945431 230,285.05 L230,301.178993 C230,302.283563 229.104569,303.178993 228,303.178993 C227.470321,303.178993 226.962273,302.968877 226.587326,302.594745 L218.5,294.525 L210.423193,286.465752 C209.641295,285.685553 209.639917,284.419224 210.420116,283.637326 C210.795313,283.261312 211.30468,283.05 211.835867,283.05 Z" id="矩形备份" transform="translate(218.500000, 294.525000) scale(1, -1) translate(-218.500000, -294.525000) "></path>
                <path d="M4.83586717,283.05 L21,283.05 C22.1045695,283.05 23,283.945431 23,285.05 L23,301.178993 C23,302.283563 22.1045695,303.178993 21,303.178993 C20.4703211,303.178993 19.962273,302.968877 19.5873261,302.594745 L11.5,294.525 L3.42319331,286.465752 C2.6412953,285.685553 2.63991736,284.419224 3.42011559,283.637326 C3.79531269,283.261312 4.30468003,283.05 4.83586717,283.05 Z" id="矩形备份-6" transform="translate(11.500000, 294.525000) scale(-1, -1) translate(-11.500000, -294.525000) "></path>
            </g>
            <path d="M117.5,52 C160.302068,52 195,91.2240626 195,136.758241 C195,182.292419 160.302068,256 117.5,256 C74.6979319,256 40,182.292419 40,136.758241 C40,91.2240626 74.6979319,52 117.5,52 Z M117,56 C77.1468963,56 44,92.7338873 44,136.332194 C44,158.41159 52.5116801,187.39005 65.979178,210.617125 C80.648816,235.917504 98.9446602,251 117,251 C135.05534,251 153.351184,235.917504 168.020822,210.617125 C181.48832,187.39005 190,158.41159 190,136.332194 C190,92.7338873 156.853104,56 117,56 Z" id="椭圆形" fill="#5D5D6C" fill-rule="nonzero"></path>
            <use id="路径" stroke="#5D5D6C" mask="url(#mask-2)" stroke-width="4" stroke-linecap="round" stroke-linejoin="round" stroke-dasharray="12,8" xlink:href="#path-1"></use>
            <path d="M43.3333333,134.981455 C43.3333333,144.295185 76.430344,151.845455 117.257576,151.845455 C158.084807,151.845455 191.181818,144.295185 191.181818,134.981455" id="路径" stroke="#5D5D6C" stroke-width="2"></path>
            <rect id="矩形" fill="#5D5D6C" x="116.330033" y="52.3968379" width="1.33993399" height="203" rx="0.669966997"></rect>
        </g>
    </g>
</svg>