<?xml version="1.0" encoding="UTF-8"?>
<svg width="22px" height="22px" viewBox="0 0 22 22" version="1.1" xmlns="http://www.w3.org/2000/svg" xmlns:xlink="http://www.w3.org/1999/xlink">
    <title>Settings备份 2</title>
    <g id="1.0" stroke="none" stroke-width="1" fill="none" fill-rule="evenodd">
        <g id="PoP内点击活动入口" transform="translate(-44.000000, -68.000000)" fill="#FFFFFF">
            <g id="Settings备份-2" transform="translate(44.000000, 68.000000)">
                <path d="M7.85714286,10.1538462 L4.71428571,10.1538462 L4.714,6.769 L0,6.76923077 L0,3.38461538 L4.714,3.384 L4.71428571,0 L7.85714286,0 L7.85714286,10.1538462 Z M9.42857143,3.38461538 L22,3.38461538 L22,6.76923077 L9.42857143,6.76923077 L9.42857143,3.38461538 Z M14.1428571,18.6153846 L0,18.6153846 L0,15.2307692 L14.1428571,15.2307692 L14.1428571,18.6153846 Z M18.8571429,11.8461538 L18.857,15.23 L22,15.2307692 L22,18.6153846 L18.857,18.615 L18.8571429,22 L15.7142857,22 L15.7142857,11.8461538 L18.8571429,11.8461538 Z" id="形状结合"></path>
            </g>
        </g>
    </g>
</svg>