<?xml version="1.0" encoding="UTF-8"?>
<svg width="334px" height="206px" viewBox="0 0 334 206" version="1.1" xmlns="http://www.w3.org/2000/svg" xmlns:xlink="http://www.w3.org/1999/xlink">
    <title>编组 2备份</title>
    <defs>
        <path d="M331.740727,101.888142 C331.793972,75.6826175 261.027483,54.582152 173.679318,54.7589329 C86.3311532,54.9357139 15.4782862,76.3227979 15.4250102,102.528322" id="path-1"></path>
        <mask id="mask-2" maskContentUnits="userSpaceOnUse" maskUnits="objectBoundingBox" x="0" y="0" width="316.315716" height="47.770492" fill="white">
            <use xlink:href="#path-1"></use>
        </mask>
    </defs>
    <g id="1.0" stroke="none" stroke-width="1" fill="none" fill-rule="evenodd">
        <g id="编组-2备份" transform="translate(2.000000, 2.000000)">
            <use id="路径" stroke="#5D5D6C" mask="url(#mask-2)" stroke-width="4" stroke-linecap="round" stroke-linejoin="round" stroke-dasharray="12,8" transform="translate(173.582868, 78.643076) rotate(-339.000000) translate(-173.582868, -78.643076) " xlink:href="#path-1"></use>
            <g id="编组-2备份-2" transform="translate(70.574959, 12.534680)">
                <g id="编组" transform="translate(11.344623, 0.000000)" fill="#3A3A49">
                    <path d="M167.648321,83.6391938 C167.648321,129.760283 130.045065,167.281194 83.8255667,167.281194 C37.6032567,167.281194 0,129.760283 0,83.6391938 C0,37.5209105 37.6032567,0 83.8255667,0 C130.045065,0 167.648321,37.5209105 167.648321,83.6391938" id="Fill-3"></path>
                </g>
                <g id="编组" transform="translate(46.639007, 37.451013)"></g>
                <path d="M172.060119,117.346509 C164.066972,117.346509 157.564212,110.681809 157.564212,102.490255 L157.564212,69.7836158 C157.564212,61.5917981 164.066972,54.9281531 172.060119,54.9281531 C180.053267,54.9281531 186.556027,61.5917981 186.556027,69.7836158 L186.556027,102.490255 C186.556027,110.681809 180.053267,117.346509 172.060119,117.346509" id="路径备份" fill="#5D5D6C"></path>
                <path d="M5.04205477,102.490255 L5.04205477,69.7836158 C5.04205477,61.5917981 11.5448148,54.9281531 19.5379623,54.9281531 C27.5311097,54.9281531 34.0338697,61.5917981 34.0338697,69.7836158 L34.0338697,102.490255 C34.0338697,110.681809 27.5311097,117.346509 19.5379623,117.346509 C11.5448148,117.346509 5.04205477,110.681809 5.04205477,102.490255 Z" id="路径备份-2" fill="#5D5D6C" transform="translate(19.537962, 86.137331) rotate(-180.000000) translate(-19.537962, -86.137331) "></path>
                <path d="M175.84166,117.346509 C167.848513,117.346509 161.345753,110.681809 161.345753,102.490255 L161.345753,69.7836158 C161.345753,61.5917981 167.848513,54.9281531 175.84166,54.9281531 C183.834808,54.9281531 190.337568,61.5917981 190.337568,69.7836158 L190.337568,102.490255 C190.337568,110.681809 183.834808,117.346509 175.84166,117.346509" id="路径" fill="#3A3A49"></path>
                <path d="M14.4959075,117.346509 C6.50276007,117.346509 0,110.681809 0,102.490255 L0,69.7836158 C0,61.5917981 6.50276007,54.9281531 14.4959075,54.9281531 C22.4890549,54.9281531 28.991815,61.5917981 28.991815,69.7836158 L28.991815,102.490255 C28.991815,110.681809 22.4890549,117.346509 14.4959075,117.346509" id="路径备份-3" fill="#3A3A49" transform="translate(14.495907, 86.137331) rotate(-180.000000) translate(-14.495907, -86.137331) "></path>
                <path d="M150.00113,85.5132848 C150.00113,115.504341 125.451729,139.817117 95.1687839,139.817117 C64.8855612,139.817117 40.3364382,115.504341 40.3364382,85.5132848 C40.3364382,55.5219535 64.8855612,31.2091779 95.1687839,31.2091779 C125.451729,31.2091779 150.00113,55.5219535 150.00113,85.5132848" id="Fill-7" fill="#9C9CA4"></path>
                <path d="M143.698561,85.513269 C143.698561,112.057078 121.970931,133.575281 95.1687839,133.575281 C68.3663914,133.575281 46.6390067,112.057078 46.6390067,85.513269 C46.6390067,58.9692171 68.3663914,37.4510135 95.1687839,37.4510135 C121.970931,37.4510135 143.698561,58.9692171 143.698561,85.513269" id="Fill-7" fill="#0B0B0F"></path>
            </g>
            <path d="M-1.74072653,100.111858 C-1.79397242,126.317382 68.9725172,147.417848 156.320682,147.241067 C243.668847,147.064286 314.521714,125.677202 314.57499,99.4716778" id="路径" stroke="#5D5D6C" stroke-width="2" transform="translate(156.417132, 123.356924) rotate(-339.000000) translate(-156.417132, -123.356924) "></path>
        </g>
    </g>
</svg>