<?xml version="1.0" encoding="UTF-8"?>
<svg width="50px" height="50px" viewBox="0 0 50 50" version="1.1" xmlns="http://www.w3.org/2000/svg" xmlns:xlink="http://www.w3.org/1999/xlink">
    <title>警告</title>
    <g id="1.0" stroke="none" stroke-width="1" fill="none" fill-rule="evenodd">
        <g id="Sign-out确认" transform="translate(-24.000000, -340.000000)" fill-rule="nonzero">
            <g id="失败" transform="translate(24.000000, 340.000000)">
                <rect id="矩形" fill="#000000" opacity="0" x="0" y="0" width="50" height="50"></rect>
                <path d="M3.22580645,24.9999751 C3.22580645,37.0254353 12.9745758,46.7741935 25,46.7741935 C37.0254242,46.7741935 46.7741935,37.0254353 46.7741935,24.9999751 C46.7741935,12.9745647 37.0254242,3.22580645 25,3.22580645 C12.9745758,3.22580645 3.22580645,12.9745647 3.22580645,24.9999751 Z M25,30.6451613 C27.2269546,30.6451613 29.0322581,32.4504647 29.0322581,34.6774194 C29.0322581,36.904374 27.2269546,38.7096774 25,38.7096774 C22.7730454,38.7096774 20.9677419,36.904374 20.9677419,34.6774194 C20.9677419,32.4504647 22.7730454,30.6451613 25,30.6451613 Z M28.2584898,12.0967742 L27.4193548,28.6743164 L22.5806452,28.6743164 L21.3317871,12.0967742 L28.2584898,12.0967742 Z" id="形状" fill="#FF6363"></path>
            </g>
        </g>
    </g>
</svg>
